HIERARCHY
ROOT Pelvis
{
	OFFSET 0.000000 0.000000 0.000000
	CHANNELS 6 Xposition Yposition Zposition Xrotation Yrotation Zrotation
	JOINT LeftUpLeg_virtual
	{
		OFFSET 0.000000 0.000000 0.000000
		CHANNELS 3 Xrotation Yrotation Zrotation
		JOINT LeftUpLeg
		{
			OFFSET 18.735201 -5.666702 -4.541200
			CHANNELS 3 Xrotation Yrotation Zrotation
			JOINT LeftLeg
			{
				OFFSET -0.021200 -31.938179 0.493100
				CHANNELS 3 Xrotation Yrotation Zrotation
				JOINT LeftFoot
				{
					OFFSET 0.021200 -31.938179 -4.336299
					CHANNELS 3 Xrotation Yrotation Zrotation
					JOINT LeftToeBase
					{
						OFFSET 0.943001 -26.722000 15.023500
						CHANNELS 3 Xrotation Yrotation Zrotation
						End Site
						{
							OFFSET 0 0 0
						}
					}
				}
			}
		}
	}
	JOINT RightUpLeg_virtual
	{
		OFFSET 0.000000 0.000000 0.000000
		CHANNELS 3 Xrotation Yrotation Zrotation
		JOINT RightUpLeg
		{
			OFFSET -18.735201 -5.666702 -4.541200
			CHANNELS 3 Xrotation Yrotation Zrotation
			JOINT RightLeg
			{
				OFFSET 0.018946 -31.938133 0.493100
				CHANNELS 3 Xrotation Yrotation Zrotation
				JOINT RightFoot
				{
					OFFSET -0.018946 -31.938126 -4.336299
					CHANNELS 3 Xrotation Yrotation Zrotation
					JOINT RightToeBase
					{
						OFFSET -0.943001 -26.722004 15.023500
						CHANNELS 3 Xrotation Yrotation Zrotation
						End Site
						{
							OFFSET 0 0 0
						}
					}
				}
			}
		}
	}
	JOINT Hips_virtual
	{
		OFFSET 0.000000 0.000000 0.000000
		CHANNELS 3 Xrotation Yrotation Zrotation
		JOINT Hips
		{
			OFFSET -0.000000 -0.000000 -0.000000
			CHANNELS 3 Xrotation Yrotation Zrotation
			JOINT Spine
			{
				OFFSET 0.000000 10.199997 -0.299500
				CHANNELS 3 Xrotation Yrotation Zrotation
				JOINT Spine1
				{
					OFFSET 0.000000 11.900002 -1.516600
					CHANNELS 3 Xrotation Yrotation Zrotation
					JOINT Spine2
					{
						OFFSET 0.000000 13.600006 -2.842500
						CHANNELS 3 Xrotation Yrotation Zrotation
						JOINT Neck_virtual
						{
							OFFSET 0.000000 0.000000 0.000000
							CHANNELS 3 Xrotation Yrotation Zrotation
							JOINT Neck
							{
								OFFSET 0.000000 9.624100 -2.890100
								CHANNELS 3 Xrotation Yrotation Zrotation
								JOINT Head
								{
									OFFSET 0.000000 14.068802 -1.351900
									CHANNELS 3 Xrotation Yrotation Zrotation
									End Site
									{
										OFFSET 0 0 0
									}
								}
							}
						}
						JOINT LeftShoulder_virtual
						{
							OFFSET 0.000000 0.000000 0.000000
							CHANNELS 3 Xrotation Yrotation Zrotation
							JOINT LeftShoulder
							{
								OFFSET 15.263000 10.923401 -0.547700
								CHANNELS 3 Xrotation Yrotation Zrotation
								JOINT LeftArm
								{
									OFFSET 25.438599 -2.830597 -13.032500
									CHANNELS 3 Xrotation Yrotation Zrotation
									JOINT LeftForeArm
									{
										OFFSET 29.960503 0.000000 0.000000
										CHANNELS 3 Xrotation Yrotation Zrotation
										JOINT LeftHand
										{
											OFFSET 27.849251 0.000000 0.000000
											CHANNELS 3 Xrotation Yrotation Zrotation
											End Site
											{
												OFFSET 0 0 0
											}
										}
									}
								}
							}
						}
						JOINT RightShoulder_virtual
						{
							OFFSET 0.000000 0.000000 0.000000
							CHANNELS 3 Xrotation Yrotation Zrotation
							JOINT RightShoulder
							{
								OFFSET -15.263000 10.923401 -0.547700
								CHANNELS 3 Xrotation Yrotation Zrotation
								JOINT RightArm
								{
									OFFSET -25.438599 -2.830597 -13.032500
									CHANNELS 3 Xrotation Yrotation Zrotation
									JOINT RightForeArm
									{
										OFFSET -29.960503 0.000000 0.000000
										CHANNELS 3 Xrotation Yrotation Zrotation
										JOINT RightHand
										{
											OFFSET -27.849251 0.000000 0.000000
											CHANNELS 3 Xrotation Yrotation Zrotation
											End Site
											{
												OFFSET 0 0 0
											}
										}
									}
								}
							}
						}
					}
				}
			}
		}
	}
}
MOTION
Frames: 10
Frame Time: 0.03333333
-0.059358 109.565186 2.766197 0.000000 0.000000 0.000000 -90.676854 -2.027349 1.708078 -10.712095 17.932429 19.798266 12.568703 0.379729 1.440283 21.703884 29.940366 -28.444202 0.000000 0.000000 0.000000 -90.676854 -2.027349 1.708078 -14.220182 -16.528849 -21.781586 14.517605 -4.819879 -4.597104 32.009972 -29.972844 33.493383 0.000000 0.000000 0.000000 -90.676854 -2.027349 1.708078 0.000000 0.000000 0.000000 0.643889 -0.166313 -0.783018 0.768344 0.010520 -0.441587 0.000000 0.000000 0.000000 0.794643 0.003108 -0.423897 -1.925773 1.601828 -3.352909 0.000000 0.000000 0.000000 0.794643 0.003108 -0.423897 0.826369 -6.003513 -3.769292 44.058169 -39.817059 -34.619558 -0.000173 -83.309477 -0.000164 0.000000 0.000000 0.000000 0.794643 0.003108 -0.423897 0.511996 4.220234 2.974418 -4.382362 2.494188 83.944172 -179.999964 50.597604 179.999950 0.000000 0.000000 0.000000 
-0.055675 109.564621 2.766121 0.000000 0.000000 0.000000 -90.684531 -2.022949 1.706151 -10.711700 17.934159 19.798726 12.580420 0.385255 1.440317 21.695150 29.938898 -28.437590 0.000000 0.000000 0.000000 -90.684531 -2.022949 1.706151 -14.204292 -16.531119 -21.781764 14.510692 -4.829199 -4.597166 32.011085 -29.972086 33.500500 0.000000 0.000000 0.000000 -90.684531 -2.022949 1.706151 0.000000 0.000000 0.000000 0.644229 -0.166559 -0.776472 0.775539 0.010199 -0.441929 0.000000 0.000000 0.000000 0.799325 0.002338 -0.423853 -1.934868 1.614334 -3.345712 0.000000 0.000000 0.000000 0.799325 0.002338 -0.423853 0.821171 -6.021021 -3.761135 44.049481 -39.813005 -34.639048 -0.000085 -83.307162 -0.000052 0.000000 0.000000 0.000000 0.799325 0.002338 -0.423853 0.506621 4.242360 2.977802 -4.368373 2.476191 83.932834 -179.999964 50.586481 179.999950 0.000000 0.000000 0.000000 
-0.051485 109.563736 2.766922 0.000000 0.000000 0.000000 -90.692208 -2.018494 1.704021 -10.710000 17.935679 19.799634 12.592267 0.388844 1.440394 21.686897 29.936262 -28.435864 0.000000 0.000000 0.000000 -90.692208 -2.018494 1.704021 -14.189382 -16.533057 -21.782117 14.506393 -4.840754 -4.597181 32.011290 -29.971335 33.508372 0.000000 0.000000 0.000000 -90.692208 -2.018494 1.704021 0.000000 0.000000 0.000000 0.644478 -0.166754 -0.768963 0.783323 0.010057 -0.442169 0.000000 0.000000 0.000000 0.801151 0.001820 -0.423847 -1.949519 1.628010 -3.338570 0.000000 0.000000 0.000000 0.801151 0.001820 -0.423847 0.816272 -6.034782 -3.754559 44.044895 -39.812346 -34.650171 0.000094 -83.304204 0.000104 0.000000 0.000000 0.000000 0.801151 0.001820 -0.423847 0.501672 4.258664 2.981407 -4.356467 2.463915 83.921872 -179.999978 50.578080 179.999991 0.000000 0.000000 0.000000 
-0.046347 109.563171 2.769613 0.000000 0.000000 0.000000 -90.699154 -2.014017 1.701482 -10.714023 17.934438 19.804835 12.594751 0.347421 1.440662 21.698941 29.928666 -28.445443 0.000000 0.000000 0.000000 -90.699154 -2.014017 1.701482 -14.186956 -16.530379 -21.786147 14.509670 -4.826264 -4.597339 32.023690 -29.969743 33.515147 0.000000 0.000000 0.000000 -90.699154 -2.014017 1.701482 0.000000 0.000000 0.000000 0.644665 -0.166895 -0.760468 0.790635 0.010041 -0.442317 0.000000 0.000000 0.000000 0.802111 0.001533 -0.423876 -1.968844 1.642457 -3.331671 0.000000 0.000000 0.000000 0.802111 0.001533 -0.423876 0.814088 -6.042071 -3.750280 44.046350 -39.816216 -34.649249 0.000096 -83.299430 0.000122 0.000000 0.000000 0.000000 0.802111 0.001533 -0.423876 0.495734 4.266200 2.985393 -4.348705 2.459901 83.910288 -179.999978 50.573504 179.999978 0.000000 0.000000 0.000000 
-0.041456 109.562454 2.771622 0.000000 0.000000 0.000000 -90.704530 -2.009373 1.699090 -10.719975 17.933640 19.807982 12.604328 0.331925 1.440859 21.699380 29.920682 -28.444818 0.000000 0.000000 0.000000 -90.704530 -2.009373 1.699090 -14.177125 -16.530791 -21.787393 14.509690 -4.838451 -4.597291 32.024138 -29.968654 33.521278 0.000000 0.000000 0.000000 -90.704530 -2.009373 1.699090 0.000000 0.000000 0.000000 0.644792 -0.167001 -0.751704 0.796452 0.010102 -0.442384 0.000000 0.000000 0.000000 0.802350 0.001452 -0.423934 -1.991915 1.657363 -3.325615 0.000000 0.000000 0.000000 0.802350 0.001452 -0.423934 0.812660 -6.040043 -3.749615 44.055540 -39.827543 -34.634049 0.000126 -83.293255 0.000147 0.000000 0.000000 0.000000 0.802350 0.001452 -0.423934 0.491013 4.262262 2.990335 -4.346656 2.467088 83.898089 -179.999978 50.574112 179.999978 0.000000 0.000000 0.000000 
-0.037426 109.561844 2.772970 0.000000 0.000000 0.000000 -90.707924 -2.005005 1.697074 -10.730406 17.932404 19.811889 12.628024 0.348913 1.440901 21.682820 29.913298 -28.432360 0.000000 0.000000 0.000000 -90.707924 -2.005005 1.697074 -14.168695 -16.531537 -21.787713 14.504651 -4.845952 -4.597440 32.029670 -29.967250 33.525386 0.000000 0.000000 0.000000 -90.707924 -2.005005 1.697074 0.000000 0.000000 0.000000 0.644970 -0.166986 -0.743079 0.799679 0.010187 -0.442380 0.000000 0.000000 0.000000 0.802065 0.001557 -0.424020 -2.017844 1.672228 -3.320169 0.000000 0.000000 0.000000 0.802065 0.001557 -0.424020 0.812162 -6.027388 -3.751180 44.073066 -39.845565 -34.601984 -0.000076 -83.285599 -0.000088 0.000000 0.000000 0.000000 0.802065 0.001557 -0.424020 0.487832 4.245594 2.996222 -4.351202 2.486578 83.885317 -179.999978 50.580437 179.999991 0.000000 0.000000 0.000000 
-0.032859 109.561440 2.776299 0.000000 0.000000 0.000000 -90.709816 -2.000703 1.694685 -10.741132 17.930051 19.816177 12.639441 0.329143 1.441123 21.684608 29.904566 -28.434931 0.000000 0.000000 0.000000 -90.709816 -2.000703 1.694685 -14.172164 -16.527869 -21.791363 14.506910 -4.829564 -4.597685 32.045830 -29.965614 33.530532 0.000000 0.000000 0.000000 -90.709816 -2.000703 1.694685 0.000000 0.000000 0.000000 0.645237 -0.166907 -0.734008 0.801507 0.010244 -0.442316 0.000000 0.000000 0.000000 0.801485 0.001825 -0.424130 -2.045758 1.686644 -3.315489 0.000000 0.000000 0.000000 0.801485 0.001825 -0.424130 0.812212 -6.008143 -3.755920 44.095435 -39.867719 -34.559152 -0.000043 -83.277102 -0.000042 0.000000 0.000000 0.000000 0.801485 0.001825 -0.424130 0.487044 4.220431 3.001531 -4.359954 2.514287 83.873528 -179.999978 50.590924 179.999978 0.000000 0.000000 0.000000 
-0.028610 109.560928 2.779488 0.000000 0.000000 0.000000 -90.710574 -1.996697 1.692447 -10.753714 17.926888 19.820514 12.652974 0.313146 1.441322 21.684792 29.895980 -28.435082 0.000000 0.000000 0.000000 -90.710574 -1.996697 1.692447 -14.172694 -16.525597 -21.793529 14.507622 -4.826289 -4.597823 32.055604 -29.964446 33.536143 0.000000 0.000000 0.000000 -90.710574 -1.996697 1.692447 0.000000 0.000000 0.000000 0.645621 -0.166783 -0.725186 0.802787 0.010735 -0.442201 0.000000 0.000000 0.000000 0.800753 0.002236 -0.424260 -2.074768 1.700205 -3.311760 0.000000 0.000000 0.000000 0.800753 0.002236 -0.424260 0.812633 -5.985355 -3.762703 44.120604 -39.891662 -34.509824 -0.000071 -83.268298 -0.000069 0.000000 0.000000 0.000000 0.800753 0.002236 -0.424260 0.487246 4.189668 3.003525 -4.371356 2.547164 83.864164 -179.999950 50.604288 179.999964 0.000000 0.000000 0.000000 
-0.024662 109.560364 2.782578 0.000000 0.000000 0.000000 -90.710137 -1.992982 1.690290 -10.764095 17.921892 19.824073 12.667545 0.315481 1.441445 21.679241 29.887648 -28.435227 0.000000 0.000000 0.000000 -90.710137 -1.992982 1.690290 -14.171275 -16.524652 -21.794082 14.507844 -4.839570 -4.597832 32.058111 -29.963770 33.541017 0.000000 0.000000 0.000000 -90.710137 -1.992982 1.690290 0.000000 0.000000 0.000000 0.646011 -0.166595 -0.716746 0.803725 0.011825 -0.442045 0.000000 0.000000 0.000000 0.800104 0.002766 -0.424408 -2.103934 1.712468 -3.309079 0.000000 0.000000 0.000000 0.800104 0.002766 -0.424408 0.813346 -5.960061 -3.771342 44.147928 -39.916469 -34.455391 0.000158 -83.259507 0.000171 0.000000 0.000000 0.000000 0.800104 0.002766 -0.424408 0.488130 4.154492 3.004635 -4.384896 2.584040 83.857060 -179.999978 50.620072 179.999978 0.000000 0.000000 0.000000 
-0.021222 109.559753 2.785530 0.000000 0.000000 0.000000 -90.708491 -1.989150 1.688287 -10.776199 17.915702 19.827296 12.681424 0.315176 1.441592 21.677866 29.879731 -28.434860 0.000000 0.000000 0.000000 -90.708491 -1.989150 1.688287 -14.172794 -16.522076 -21.795270 14.509475 -4.844259 -4.597968 32.064931 -29.962554 33.544268 0.000000 0.000000 0.000000 -90.708491 -1.989150 1.688287 0.000000 0.000000 0.000000 0.646404 -0.166338 -0.708889 0.804670 0.013084 -0.441861 0.000000 0.000000 0.000000 0.799668 0.004204 -0.424568 -2.132446 1.723059 -3.307631 0.000000 0.000000 0.000000 0.799668 0.004204 -0.424568 0.814195 -5.934298 -3.781539 44.176113 -39.940392 -34.398848 0.000201 -83.251222 0.000229 0.000000 0.000000 0.000000 0.799668 0.004204 -0.424568 0.489580 4.116862 3.004965 -4.399774 2.622893 83.851849 179.999978 50.637151 -179.999978 0.000000 0.000000 0.000000 
